<svg xmlns="http://www.w3.org/2000/svg"  viewBox="0 0 100 100" width="100px" height="100px"><path fill="#fefdef" d="M64.655,30.291c3.568,2.345,7.167,5.802,10.998,10.724C87.04,55.649,94,49,94,49s0,9-13,8 c0,0,8.011,8.859,8.011,21.429C89.011,93,65,89.854,65,89.854s5-4.481,5-7.854H58H42H30c0,3.374,4.146,7.854,4.146,7.854 S11.258,93,11.258,78.429c0-12.571,9.775-23.334,9.775-23.334C11.067,60.191,6,49,6,49s7.23,6.649,18.618-7.984 c3.812-4.899,7.347-8.346,10.842-10.691L40,26l10-2l12,2L64.655,30.291z"/><path fill="none" stroke="#1f212b" stroke-linejoin="round" stroke-miterlimit="10" stroke-width="2" d="M35.46,30.325 c-3.495,2.345-7.03,5.792-10.842,10.691C13.23,55.649,6,49,6,49s5.067,11.191,15.034,6.095c0,0-9.775,10.763-9.775,23.334 c0,14.571,22.887,11.425,22.887,11.425S30,85.374,30,82h12"/><path fill="none" stroke="#1f212b" stroke-linejoin="round" stroke-miterlimit="10" stroke-width="2" d="M58,82h12 c0,3.374-5,7.854-5,7.854S89.011,93,89.011,78.429C89.011,65.859,81,57,81,57c13,1,13-8,13-8s-6.96,6.649-18.348-7.984 c-3.83-4.922-7.43-8.379-10.998-10.724"/><path fill="none" stroke="#1f212b" stroke-linejoin="round" stroke-miterlimit="10" stroke-width="2" d="M53.94,58.699 c0,0-7.101-8.216-0.27-15.458C53.67,43.242,64.5,54,68.5,64c0,0-2.838,10.298-5,13c-2.419,3.024-8.5,8-13.5,8 s-12.024-5.745-14.5-9c-1.863-2.449-4-11-4-11l6.255-22.198C37.755,42.802,35.38,58.699,53.94,58.699z"/><path fill="none" stroke="#1f212b" stroke-linecap="round" stroke-linejoin="round" stroke-miterlimit="10" d="M28.474,76.673 c0,8.827,5.672,13.181,5.672,13.181"/><path fill="none" stroke="#1f212b" stroke-linecap="round" stroke-linejoin="round" stroke-miterlimit="10" d="M32.5,59.5 c0,0-3.23,6.695-3.904,14.434"/><path fill="none" stroke="#1f212b" stroke-linecap="round" stroke-linejoin="round" stroke-miterlimit="10" d="M71.355,73.042 c0.103,1.092,0.162,2.268,0.162,3.526c0,9.683-6.043,13.287-6.043,13.287"/><path fill="none" stroke="#1f212b" stroke-linecap="round" stroke-linejoin="round" stroke-miterlimit="10" d="M68.575,62.958 c0,0,1.504,2.444,2.361,7.064"/><path fill="none" stroke="#1f212b" stroke-linecap="round" stroke-linejoin="round" stroke-miterlimit="10" d="M47.5,31.5 c0,0-10,2-10,16"/><path fill="none" stroke="#1f212b" stroke-linecap="round" stroke-linejoin="round" stroke-miterlimit="10" d="M31.951,48.852 c2.109-1.672,4.169-3.686,5.804-6.05"/><path fill="none" stroke="#1f212b" stroke-linecap="round" stroke-linejoin="round" stroke-miterlimit="10" d="M28.365,51.379 c0.524-0.329,1.059-0.681,1.599-1.055"/><path fill="none" stroke="#1f212b" stroke-linecap="round" stroke-linejoin="round" stroke-miterlimit="10" d="M21.034,55.095 c0,0,2.37-0.862,5.484-2.617"/><path fill="#fac4aa" d="M53.94,58.699c0,0-7.101-8.216-0.27-15.458C53.67,43.242,64.5,54,68.5,64c0,0-2.838,10.298-5,13 c-2.419,3.024-8.5,8-13.5,8s-12.024-5.745-14.5-9c-1.863-2.449-4-11-4-11l6.255-22.198C37.755,42.802,35.38,58.699,53.94,58.699z"/><path fill="#e85654" d="M49.993,79.472L49.993,79.472c-3.034,0-5.493-2.459-5.493-5.493v-1.507h10.987v1.507 C55.487,77.012,53.027,79.472,49.993,79.472z"/><path fill="none" stroke="#1f212b" stroke-linecap="round" stroke-linejoin="round" stroke-miterlimit="10" d="M75.063,56.093 c1.682,0.259,3.493,0.407,5.437,0.407"/><path fill="none" stroke="#1f212b" stroke-linecap="round" stroke-linejoin="round" stroke-miterlimit="10" d="M69.83,54.83 c0.744,0.249,1.523,0.478,2.338,0.681"/><path fill="none" stroke="#1f212b" stroke-linecap="round" stroke-linejoin="round" stroke-miterlimit="10" d="M57.5,46.5 c0,0,2.928,4.183,9.325,7.138"/><path fill="none" stroke="#1f212b" stroke-linejoin="round" stroke-miterlimit="10" stroke-width="2" d="M53.94,58.699 c0,0-7.101-8.216-0.27-15.458C53.67,43.242,64.5,54,68.5,64c0,0-2.838,10.298-5,13c-2.419,3.024-8.5,8-13.5,8 s-12.024-5.745-14.5-9c-1.863-2.449-4-11-4-11l6.255-22.198C37.755,42.802,35.38,58.699,53.94,58.699z"/><path fill="#1f212b" d="M40.5,60c-0.918,0-1.746,0.464-2.37,1.207C38.394,61.078,38.687,61,39,61c1.105,0,2,0.895,2,2 c0,1.105-0.895,2-2,2c-0.916,0-1.679-0.619-1.916-1.459C37.031,63.851,37,64.17,37,64.5c0,2.485,1.567,4.5,3.5,4.5 s3.5-2.015,3.5-4.5S42.433,60,40.5,60z"/><path fill="#1f212b" d="M59.5,60c-0.918,0-1.746,0.464-2.37,1.207C57.394,61.078,57.687,61,58,61c1.105,0,2,0.895,2,2 c0,1.105-0.895,2-2,2c-0.916,0-1.679-0.619-1.916-1.459C56.031,63.851,56,64.17,56,64.5c0,2.485,1.567,4.5,3.5,4.5 s3.5-2.015,3.5-4.5S61.433,60,59.5,60z"/><path fill="#f599a0" d="M45.397,76.988c0.983-1.499,2.677-1.584,4.603-1.584c1.898,0,3.572,0.057,4.561,1.52l-1.954,2.036 l-2.613,0.511l-2.631-0.67L45.397,76.988z"/><path fill="none" stroke="#1f212b" stroke-linecap="round" stroke-linejoin="round" stroke-miterlimit="10" d="M45.397,76.988 c0.983-1.499,2.677-1.584,4.603-1.584c1.898,0,3.572,0.057,4.561,1.52"/><path fill="#fbb97f" d="M52.5,25.046V24l6-2l-6-2v-4h3L50,9l-5.5,7h3v4l-6,2l6,2v1.046c-9.586,0.315-17,2.411-17,4.954 c0,1.988,4.534,3.699,11.085,4.505c-1.909-0.526-3.085-1.23-3.085-2.005c0-1.408,3.852-2.584,9-2.877V35l-2,2l4.5,5l4.5-5l-2-2 v-5.377c5.148,0.293,9,1.469,9,2.877c0,0.775-1.177,1.479-3.085,2.005C64.966,33.699,69.5,31.988,69.5,30 C69.5,27.456,62.086,25.361,52.5,25.046z"/><path fill="none" stroke="#1f212b" stroke-linejoin="round" stroke-miterlimit="10" stroke-width="2" d="M52.5,25.046V24l6-2l-6-2 v-4h3L50,9l-5.5,7h3v4l-6,2l6,2v1.046c-9.586,0.315-17,2.411-17,4.954c0,1.988,4.534,3.699,11.085,4.505 c-1.909-0.526-3.085-1.23-3.085-2.005c0-1.408,3.852-2.584,9-2.877V35l-2,2l4.5,5l4.5-5l-2-2v-5.377c5.148,0.293,9,1.469,9,2.877 c0,0.775-1.177,1.479-3.085,2.005C64.966,33.699,69.5,31.988,69.5,30C69.5,27.456,62.086,25.361,52.5,25.046z"/><path fill="none" stroke="#1f212b" stroke-linecap="round" stroke-linejoin="round" stroke-miterlimit="10" d="M49.993,79.472 L49.993,79.472c-3.034,0-5.493-2.459-5.493-5.493v-1.507h10.987v1.507C55.487,77.012,53.027,79.472,49.993,79.472z"/></svg>